<svg width="14" height="16" viewBox="0 0 14 16" fill="none" xmlns="http://www.w3.org/2000/svg">
<path d="M11.4996 8.46367C11.4996 7.14233 12.1067 6.17812 13.2852 5.42817C12.6067 4.46396 11.6067 3.964 10.2854 3.85686C8.99978 3.74973 7.60702 4.57109 7.10706 4.57109C6.57139 4.57109 5.35719 3.89257 4.39297 3.89257C2.39312 3.92828 0.286133 5.46389 0.286133 8.64222C0.286133 9.57073 0.428979 10.5349 0.786096 11.5349C1.25035 12.8562 2.89308 16.0703 4.60724 15.9988C5.50004 15.9988 6.14285 15.356 7.32133 15.356C8.4641 15.356 9.03549 15.9988 10.0354 15.9988C11.7853 15.9988 13.2852 13.0705 13.7137 11.7491C11.3925 10.6421 11.4996 8.53509 11.4996 8.46367ZM9.49974 2.60695C10.464 1.46418 10.3568 0.392828 10.3568 0C9.49974 0.0714233 8.49982 0.607098 7.92843 1.24991C7.28562 1.96414 6.9285 2.85693 6.99993 3.82115C7.92843 3.89257 8.78551 3.42832 9.49974 2.60695Z" fill="white"/>
</svg>
