<svg width="38" height="44" viewBox="0 0 38 44" fill="none" xmlns="http://www.w3.org/2000/svg">
<path d="M36.1875 19.5312C35.7969 17.0312 35.0156 15 33.8438 13.4375C32.5938 11.5625 30.9531 10.4688 28.9219 10.1562C26.4219 9.6875 21.8125 10.9375 19 12.5781C16.1875 10.9375 11.5 9.6875 9.07812 10.1562C7.04688 10.4688 5.32812 11.5625 4.07812 13.4375C2.90625 15 2.125 17.0312 1.73438 19.5312C0.796875 25.3125 2.67188 31.7188 5.5625 35.5469C11.1875 43.2031 17.5938 38.75 18.9219 38.75C20.25 38.75 26.7344 43.2031 32.3594 35.5469C35.3281 31.5625 37.125 25.1562 36.1875 19.5312ZM31.4219 34.7656C26.2656 41.7188 21.0312 37.5 19 37.5C16.8125 37.5 11.6562 41.7188 6.5 34.7656C3.84375 31.1719 2.04688 25.0781 2.90625 19.6875C3.53125 16.4062 5.17188 12.1094 9.23438 11.4062C10.5625 11.1719 14.3906 11.4844 18.9219 14.0625C23.4531 11.4844 27.3594 11.1719 28.6875 11.4062C32.75 12.1875 34.3906 16.4844 35.0156 19.7656C35.875 25.0781 34.0781 31.1719 31.4219 34.7656ZM19 8.75C24.9375 8.75 26.4219 4.92188 26.4219 1.25C26.4219 0.625 25.875 0.078125 25.1719 0.078125C18.2969 0.078125 17.75 5.07812 17.75 7.5C17.6719 8.125 18.2969 8.75 19 8.75ZM25.1719 1.25C25.3281 1.32812 25.7188 7.5 19.0781 7.57812C18.9219 7.5 18.2969 1.32812 25.1719 1.25Z" fill="#182550"/>
</svg>
