<svg width="30" height="22" viewBox="0 0 30 22" fill="none" xmlns="http://www.w3.org/2000/svg">
<path d="M2.59375 1.01562C2.73438 0.6875 3.0625 0.546875 3.39062 0.59375L14.875 2L26.3125 0.59375C26.6406 0.546875 26.9688 0.734375 27.1094 1.01562L29.0312 4.90625C29.4531 5.75 29.0312 6.78125 28.1406 7.01562L20.4531 9.21875C19.7969 9.40625 19.0938 9.125 18.7656 8.51562L14.875 2L10.9375 8.51562C10.6094 9.125 9.90625 9.40625 9.25 9.21875L1.60938 7.01562C0.671875 6.78125 0.25 5.75 0.671875 4.90625L2.59375 1.01562ZM14.9219 5L17.5 9.3125C18.1562 10.4844 19.5625 11 20.875 10.625L26.875 8.9375V16.7656C26.875 17.7969 26.1719 18.6875 25.1406 18.9688L15.5781 21.3594C15.1094 21.4531 14.5938 21.4531 14.125 21.3594L4.5625 18.9688C3.57812 18.6875 2.875 17.7969 2.875 16.7656V8.9375L8.82812 10.625C10.1406 11 11.5469 10.4844 12.25 9.3125L14.7812 5H14.9219Z" fill="#79C54A"/>
</svg>
