<svg width="13" height="10" viewBox="0 0 13 10" fill="none" xmlns="http://www.w3.org/2000/svg">
<path d="M0.332031 2.71094L1.13281 1.08984C1.19141 0.972656 1.32812 0.894531 1.46484 0.914062L6.25 1.5L4.60938 4.21484C4.47266 4.46875 4.17969 4.58594 3.90625 4.50781L0.722656 3.58984C0.332031 3.49219 0.15625 3.0625 0.332031 2.71094ZM6.25 1.5L11.0156 0.914062C11.1523 0.894531 11.2891 0.972656 11.3477 1.08984L12.1484 2.71094C12.3242 3.0625 12.1484 3.49219 11.7578 3.58984L8.57422 4.50781C8.30078 4.58594 8.00781 4.46875 7.87109 4.21484L6.25 1.5ZM11.25 4.39062V7.65234C11.25 8.08203 10.957 8.45312 10.5273 8.57031L6.54297 9.56641C6.34766 9.60547 6.13281 9.60547 5.9375 9.56641L1.95312 8.57031C1.52344 8.45312 1.25 8.08203 1.25 7.65234V4.39062L2.1875 4.66406V7.65234L5.78125 8.55078V3.84375C5.78125 3.58984 5.97656 3.375 6.25 3.375C6.50391 3.375 6.71875 3.58984 6.71875 3.84375V8.55078L10.3125 7.65234V4.66406L11.25 4.39062ZM6.21094 2.75H6.26953H6.21094Z" fill="#182550"/>
</svg>
