<svg width="14" height="10" viewBox="0 0 14 10" fill="none" xmlns="http://www.w3.org/2000/svg">
<path d="M1.24609 0.298828C1.31055 0.148438 1.46094 0.0839844 1.61133 0.105469L6.875 0.75L12.1172 0.105469C12.2676 0.0839844 12.418 0.169922 12.4824 0.298828L13.3633 2.08203C13.5566 2.46875 13.3633 2.94141 12.9551 3.04883L9.43164 4.05859C9.13086 4.14453 8.80859 4.01562 8.6582 3.73633L6.875 0.75L5.07031 3.73633C4.91992 4.01562 4.59766 4.14453 4.29688 4.05859L0.794922 3.04883C0.365234 2.94141 0.171875 2.46875 0.365234 2.08203L1.24609 0.298828ZM6.89648 2.125L8.07812 4.10156C8.37891 4.63867 9.02344 4.875 9.625 4.70312L12.375 3.92969V7.51758C12.375 7.99023 12.0527 8.39844 11.5801 8.52734L7.19727 9.62305C6.98242 9.66602 6.74609 9.66602 6.53125 9.62305L2.14844 8.52734C1.69727 8.39844 1.375 7.99023 1.375 7.51758V3.92969L4.10352 4.70312C4.70508 4.875 5.34961 4.63867 5.67188 4.10156L6.83203 2.125H6.89648Z" fill="white"/>
</svg>
