<svg width="36" height="40" viewBox="0 0 36 40" fill="none" xmlns="http://www.w3.org/2000/svg">
<path d="M35.2656 17.5781C35.1094 18.5156 34.6406 19.375 34.0938 20.1562C33.4688 20.8594 32.6875 21.4844 31.8281 21.875C30.9688 22.3438 30.0312 22.5 29.0156 22.5H6.90625C5.89062 22.5 4.95312 22.3438 4.09375 21.875C3.23438 21.4844 2.45312 20.8594 1.90625 20.1562C1.28125 19.375 0.8125 18.5156 0.65625 17.5781C0.421875 16.6406 0.421875 15.625 0.65625 14.6875C0.890625 13.5938 1.4375 12.5781 2.21875 11.7188C3 10.8594 4.01562 10.2344 5.10938 9.92188L7.92188 9.21875C8.07812 7.89062 8.78125 6.71875 9.79688 5.85938C10.8906 4.92188 12.1406 4.45312 13.5469 4.45312H16.125C16.3594 4.45312 16.6719 4.375 16.9062 4.21875C17.0625 4.14062 17.2969 3.90625 17.375 3.67188C17.4531 3.4375 17.5312 3.125 17.4531 2.89062C17.375 2.57812 17.2969 2.34375 17.0625 2.1875C16.9062 2.03125 16.75 1.79688 16.75 1.5625C16.6719 1.32812 16.6719 1.01562 16.8281 0.78125C16.9062 0.546875 17.0625 0.390625 17.2969 0.234375C17.4531 0.078125 17.6875 0 17.9219 0.078125C20.5 0 22.9219 0.9375 24.7969 2.65625C26.6719 4.375 27.8438 6.71875 28.0781 9.21875L30.8906 10C31.9844 10.3125 32.9219 10.9375 33.7031 11.7188C34.4844 12.5781 35.0312 13.5938 35.3438 14.6875C35.5 15.625 35.5 16.6406 35.2656 17.5781ZM31.2812 20.7812C31.9844 20.4688 32.6094 19.9219 33.0781 19.375C33.5469 18.75 33.9375 18.0469 34.0938 17.2656C34.25 16.4844 34.25 15.7031 34.0938 15C33.8594 14.0625 33.3906 13.2812 32.7656 12.5781C32.1406 11.9531 31.3594 11.4062 30.5 11.1719L27.6094 10.4688C27.375 10.3906 27.2188 10.2344 27.0625 10C26.9062 9.84375 26.8281 9.60938 26.8281 9.375C26.5938 7.10938 25.5781 5.07812 23.9375 3.59375C22.2969 2.10938 20.1875 1.25 17.9219 1.25C18.3125 1.64062 18.5469 2.10938 18.7031 2.65625C18.7812 3.125 18.7031 3.67188 18.5469 4.14062C18.3125 4.60938 18 5 17.5312 5.3125C17.1406 5.54688 16.6719 5.70312 16.125 5.70312H13.5469C12.4531 5.70312 11.4375 6.09375 10.6562 6.79688C9.875 7.5 9.32812 8.4375 9.17188 9.45312C9.09375 9.6875 9.01562 9.84375 8.85938 10C8.78125 10.2344 8.54688 10.3125 8.39062 10.3906L5.42188 11.1719C4.5625 11.4062 3.78125 11.9531 3.15625 12.5781C2.53125 13.2812 2.0625 14.0625 1.82812 15C1.67188 15.7031 1.67188 16.4844 1.82812 17.2656C1.98438 18.0469 2.375 18.75 2.84375 19.375C3.3125 19.9219 3.9375 20.4688 4.64062 20.7812C5.34375 21.0938 6.125 21.25 6.90625 21.25H29.0156C29.7969 21.25 30.5781 21.0938 31.2812 20.7812ZM30.1875 24.6094C30.2656 24.6875 30.3438 24.6875 30.3438 24.7656C30.4219 24.8438 30.4219 24.9219 30.4219 25C30.5 25.0781 30.5 25.1562 30.4219 25.2344L28.3906 37.5C28.3125 38.2031 27.9219 38.9062 27.375 39.2969C26.8281 39.7656 26.2031 40 25.4219 40H10.5C9.79688 40 9.09375 39.7656 8.54688 39.2969C8 38.9062 7.60938 38.2031 7.53125 37.5L5.42188 25.2344C5.42188 25.1562 5.42188 25.0781 5.5 25C5.5 24.9219 5.5 24.8438 5.57812 24.7656C5.65625 24.6875 5.65625 24.6875 5.73438 24.6094C5.8125 24.6094 5.89062 24.5312 5.96875 24.5312C6.125 24.5312 6.28125 24.5312 6.4375 24.6094C6.59375 24.7656 6.67188 24.9219 6.67188 25.0781L8.78125 37.3438C8.78125 37.7344 9.01562 38.125 9.32812 38.3594C9.64062 38.6719 10.0312 38.75 10.5 38.75H12.2969L10.4219 25.1562C10.4219 24.9219 10.5 24.7656 10.5781 24.6875C10.6562 24.5312 10.8125 24.4531 10.9688 24.375C11.2031 24.375 11.3594 24.4531 11.4375 24.5312C11.5938 24.6094 11.6719 24.7656 11.6719 24.9219L13.5469 38.75H17.2969V25C17.2969 24.8438 17.375 24.6875 17.5312 24.6094C17.6094 24.4531 17.7656 24.375 17.9219 24.375C18.1562 24.375 18.3125 24.4531 18.3906 24.6094C18.5469 24.6875 18.5469 24.8438 18.5469 25V38.75H22.375L24.1719 24.9219C24.25 24.8438 24.25 24.7656 24.3281 24.6875C24.3281 24.6094 24.4062 24.6094 24.4844 24.5312C24.4844 24.4531 24.5625 24.4531 24.6406 24.4531C24.7188 24.375 24.875 24.375 24.9531 24.375C25.0312 24.4531 25.1094 24.4531 25.1875 24.4531C25.1875 24.5312 25.2656 24.6094 25.3438 24.6875C25.4219 24.6875 25.4219 24.7656 25.4219 24.8438C25.5 24.9219 25.5 25 25.4219 25.1562L23.625 38.75H25.4219C25.8906 38.75 26.2812 38.6719 26.5938 38.3594C26.9062 38.125 27.1406 37.7344 27.1406 37.3438L29.25 25.0781C29.25 24.9219 29.3281 24.7656 29.4844 24.6094C29.6406 24.5312 29.7969 24.5312 29.9531 24.5312C30.0312 24.5312 30.1094 24.6094 30.1875 24.6094Z" fill="#182550"/>
</svg>
