<svg width="18" height="16" viewBox="0 0 18 16" fill="none" xmlns="http://www.w3.org/2000/svg">
<path d="M5.214 1.17857L4.82907 2.28571H2.23957C0.979812 2.28571 0 3.32143 0 4.57143V13.7143C0 15 0.979812 16 2.23957 16H15.677C16.9018 16 17.9166 15 17.9166 13.7143V4.57143C17.9166 3.32143 16.9018 2.28571 15.677 2.28571H13.0525L12.6676 1.17857C12.4576 0.5 11.8277 0 11.0929 0H6.78869C6.05384 0 5.42396 0.5 5.214 1.17857ZM8.95828 12.5714C7.10363 12.5714 5.59892 11.0357 5.59892 9.14286C5.59892 7.25 7.10363 5.71429 8.95828 5.71429C10.8129 5.71429 12.3176 7.25 12.3176 9.14286C12.3176 11.0357 10.8129 12.5714 8.95828 12.5714Z" fill="white"/>
</svg>
