<svg width="46" height="46" viewBox="0 0 46 46" fill="none" xmlns="http://www.w3.org/2000/svg">
<rect width="46" height="46" rx="23" fill="#A6A6A6"/>
<path d="M36.5 23.375C36.5 30.8633 30.4355 36.875 23 36.875C15.5117 36.875 9.5 30.8633 9.5 23.375C9.5 15.9395 15.5117 9.875 23 9.875C30.4355 9.875 36.5 15.9395 36.5 23.375ZM14.3516 16.5723C12.875 18.4707 12.0312 20.8438 12.0312 23.375C12.0312 29.4395 16.9355 34.3438 23 34.3438C25.5312 34.3438 27.9043 33.5 29.8027 32.0234L14.3516 16.5723ZM33.9688 23.375C33.9688 17.3633 29.0117 12.4062 23 12.4062C20.416 12.4062 18.043 13.3027 16.1445 14.7793L31.5957 30.2305C33.0723 28.332 33.9688 25.959 33.9688 23.375Z" fill="white"/>
</svg>
