<svg width="18" height="13" viewBox="0 0 18 13" fill="none" xmlns="http://www.w3.org/2000/svg">
<path d="M12.5 5.4375C12.5 6.66797 11.5156 7.625 10.3125 7.625C9.08203 7.625 8.125 6.66797 8.125 5.4375C8.125 4.23438 9.08203 3.25 10.3125 3.25C11.5156 3.25 12.5 4.23438 12.5 5.4375ZM16 0.625C16.957 0.625 17.75 1.41797 17.75 2.375V8.5C17.75 9.48438 16.957 10.25 16 10.25H4.625C3.64062 10.25 2.875 9.48438 2.875 8.5V2.375C2.875 1.41797 3.64062 0.625 4.625 0.625H16ZM14.6875 1.9375H5.9375C5.9375 2.92188 5.14453 3.6875 4.1875 3.6875V7.1875C5.14453 7.1875 5.9375 7.98047 5.9375 8.9375H14.6875C14.6875 7.98047 15.4531 7.1875 16.4375 7.1875V3.6875C15.4531 3.6875 14.6875 2.92188 14.6875 1.9375ZM1.5625 9.59375C1.5625 10.6875 2.4375 11.5625 3.53125 11.5625H14.4688C14.8242 11.5625 15.125 11.8633 15.125 12.2188C15.125 12.6016 14.8242 12.875 14.4688 12.875H3.53125C1.69922 12.875 0.25 11.4258 0.25 9.59375V3.03125C0.25 2.67578 0.523438 2.375 0.90625 2.375C1.26172 2.375 1.5625 2.67578 1.5625 3.03125V9.59375Z" fill="black"/>
</svg>
