<svg width="14" height="14" viewBox="0 0 14 14" fill="none" xmlns="http://www.w3.org/2000/svg">
<path d="M6.39062 3.67188C6.39062 3.3418 6.64453 3.0625 7 3.0625C7.33008 3.0625 7.60938 3.3418 7.60938 3.67188V6.82031L9.76758 8.24219C10.0469 8.44531 10.123 8.82617 9.91992 9.10547C9.74219 9.38477 9.36133 9.46094 9.08203 9.25781L6.64453 7.63281C6.49219 7.53125 6.39062 7.32812 6.39062 7.125V3.67188ZM7 0.625C10.5801 0.625 13.5 3.54492 13.5 7.125C13.5 10.7305 10.5801 13.625 7 13.625C3.39453 13.625 0.5 10.7305 0.5 7.125C0.5 3.54492 3.39453 0.625 7 0.625ZM1.71875 7.125C1.71875 10.0449 4.08008 12.4062 7 12.4062C9.89453 12.4062 12.2812 10.0449 12.2812 7.125C12.2812 4.23047 9.89453 1.84375 7 1.84375C4.08008 1.84375 1.71875 4.23047 1.71875 7.125Z" fill="#182550"/>
</svg>
