<svg width="48" height="40" viewBox="0 0 48 40" fill="none" xmlns="http://www.w3.org/2000/svg">
<path d="M17.125 8.4375L17.75 8.75C19.2344 9.53125 20.25 11.0156 20.25 12.7344V14.375C20.25 14.6875 20.4844 15 20.875 15C21.1875 15 21.5 14.7656 21.5 14.375V12.7344C21.5 10.5469 20.25 8.67188 18.2969 7.65625L17.6719 7.34375C16.1875 6.5625 15.25 5.07812 15.25 3.35938V0.625C15.25 0.3125 14.9375 0.078125 14.625 0.078125C14.2344 0.078125 14 0.3125 14 0.625V3.35938C14 5.54688 15.1719 7.5 17.125 8.4375ZM9.625 8.4375L10.25 8.75C11.7344 9.53125 12.75 11.0156 12.75 12.7344V14.375C12.75 14.6875 12.9844 14.9219 13.375 14.9219C13.6875 14.9219 14 14.7656 14 14.375V12.7344C14 10.5469 12.75 8.67188 10.7969 7.65625L10.1719 7.34375C8.6875 6.5625 7.75 5.07812 7.75 3.35938V0.625C7.75 0.3125 7.4375 0 7.125 0C6.73438 0 6.5 0.3125 6.5 0.625V3.35938C6.5 5.54688 7.67188 7.5 9.625 8.4375ZM46.5 20H43.9219C43.9219 18.6719 42.8281 17.5 41.5 17.5C41.5 12.6562 37.5156 8.75 32.75 8.75C27.9062 8.75 24 12.6562 24 17.5H6.5C5.09375 17.5 4 18.5938 4 20H1.5C1.10938 20 0.875 20.2344 0.875 20.625C0.875 20.9375 1.10938 21.25 1.5 21.25H4.07812C4.46875 27.9688 8.14062 34.1406 13.9219 37.5C13.9219 38.9062 15.0156 40 16.4219 40H31.3438C32.6719 40 33.8438 38.9062 33.8438 37.5C39.625 34.1406 43.2969 27.9688 43.7656 21.25H46.5C46.8125 21.25 47.125 21.0156 47.125 20.625C47.125 20.3125 46.8125 20 46.5 20ZM32.75 10C36.8125 10 40.25 13.3594 40.25 17.5H25.25C25.25 13.4375 28.6094 10 32.75 10ZM33.2969 36.4844L32.6719 36.7969V37.5C32.6719 38.2031 32.125 38.75 31.4219 38.75H16.4219C15.7188 38.75 15.1719 38.2031 15.1719 37.5V36.7969L14.5469 36.4844C8.84375 33.0469 5.25 26.7969 5.25 20C5.25 19.2969 5.79688 18.75 6.5 18.75H41.4219C42.0469 18.75 42.6719 19.2969 42.6719 20C42.6719 26.7969 39.0781 33.0469 33.2969 36.4844Z" fill="#182550"/>
</svg>
