<svg width="46" height="46" viewBox="0 0 46 46" fill="none" xmlns="http://www.w3.org/2000/svg">
<rect width="46" height="46" rx="23" fill="#A6A6A6"/>
<path d="M18.373 16.625C17.1602 16.625 16.2168 17.6562 16.2168 18.875C16.2168 20.1406 17.1602 21.125 18.373 21.125C19.541 21.125 20.5293 20.1406 20.5293 18.875C20.5293 17.6562 19.541 16.625 18.373 16.625ZM31.625 12.5H14.375C12.8027 12.5 11.5 13.8594 11.5 15.5V30.5C11.5 32.1875 12.8027 33.5 14.375 33.5H31.625C33.1973 33.5 34.5 32.1875 34.5 30.5V15.5C34.5 13.8594 33.2422 12.5 31.625 12.5ZM32.3438 30.2188L26.1895 21.5C26.0547 21.2656 25.8301 21.125 25.5605 21.125C25.2461 21.125 25.0215 21.2656 24.8418 21.5L20.0801 28.25L18.418 26.0938C18.2383 25.9062 18.0137 25.7656 17.7441 25.7656C17.4746 25.7656 17.25 25.9062 17.0703 26.0938L13.7012 30.5L13.6562 15.5C13.6562 15.125 14.0156 14.75 14.375 14.75H31.625C32.0293 14.75 32.3438 15.125 32.3438 15.5V30.2188Z" fill="white"/>
<circle cx="31.5" cy="30.5" r="7" fill="#A6A6A6" stroke="#A6A6A6"/>
<path d="M31.5 37C35.0801 37 38 34.1055 38 30.5C38 26.9199 35.0801 24 31.5 24C27.8945 24 25 26.9199 25 30.5C25 34.1055 27.8945 37 31.5 37ZM34.3691 29.3066L31.1191 32.5566C30.8652 32.8105 30.4844 32.8105 30.2559 32.5566L28.6309 30.9316C28.377 30.7031 28.377 30.3223 28.6309 30.0938C28.8594 29.8398 29.2402 29.8398 29.4941 30.0938L30.6875 31.2871L33.5059 28.4434C33.7344 28.2148 34.1152 28.2148 34.3438 28.4434C34.5977 28.6973 34.5977 29.0781 34.3438 29.3066H34.3691Z" fill="white"/>
</svg>
