<svg width="9" height="8" viewBox="0 0 9 8" fill="none" xmlns="http://www.w3.org/2000/svg">
<path d="M3.46868 1.0781L4.01555 1.99996H3.99992H2.87495C2.51558 1.99996 2.24996 1.73434 2.24996 1.37497C2.24996 1.03123 2.51558 0.749983 2.87495 0.749983H2.9062C3.14057 0.749983 3.35931 0.874981 3.46868 1.0781ZM1.49998 1.37497C1.49998 1.60934 1.54685 1.81246 1.6406 1.99996H0.999989C0.718745 1.99996 0.5 2.23433 0.5 2.49994V3.49992C0.5 3.78117 0.718745 3.99991 0.999989 3.99991H7.99983C8.26545 3.99991 8.49982 3.78117 8.49982 3.49992V2.49994C8.49982 2.23433 8.26545 1.99996 7.99983 1.99996H7.3436C7.43735 1.81246 7.49984 1.60934 7.49984 1.37497C7.49984 0.624986 6.87486 0 6.12488 0H6.078C5.57801 0 5.1249 0.265619 4.8749 0.703109L4.49991 1.34372L4.10929 0.703109C3.8593 0.265619 3.40619 0 2.9062 0H2.87495C2.10934 0 1.49998 0.624986 1.49998 1.37497ZM6.74986 1.37497C6.74986 1.73434 6.46862 1.99996 6.12488 1.99996H4.9999H4.96865L5.51551 1.0781C5.64051 0.874981 5.84363 0.749983 6.078 0.749983H6.12488C6.46862 0.749983 6.74986 1.03123 6.74986 1.37497ZM0.999989 4.4999V7.24984C0.999989 7.6717 1.32811 7.99982 1.74997 7.99982H3.99992V4.4999H0.999989ZM4.9999 7.99982H7.24985C7.65609 7.99982 7.99983 7.6717 7.99983 7.24984V4.4999H4.9999V7.99982Z" fill="#A6A6A6"/>
</svg>
