<svg width="19" height="19" viewBox="0 0 19 19" fill="none" xmlns="http://www.w3.org/2000/svg">
<path d="M0.75 2.625C0.75 1.60938 1.57031 0.75 2.625 0.75H6.375C7.39062 0.75 8.25 1.60938 8.25 2.625V8.875C8.25 9.92969 7.39062 10.75 6.375 10.75H2.625C1.57031 10.75 0.75 9.92969 0.75 8.875V2.625ZM2 2.625V8.875C2 9.22656 2.27344 9.5 2.625 9.5H6.375C6.6875 9.5 7 9.22656 7 8.875V2.625C7 2.3125 6.6875 2 6.375 2H2.625C2.27344 2 2 2.3125 2 2.625ZM10.75 10.125C10.75 9.10938 11.5703 8.25 12.625 8.25H16.375C17.3906 8.25 18.25 9.10938 18.25 10.125V16.375C18.25 17.4297 17.3906 18.25 16.375 18.25H12.625C11.5703 18.25 10.75 17.4297 10.75 16.375V10.125ZM12 10.125V16.375C12 16.7266 12.2734 17 12.625 17H16.375C16.6875 17 17 16.7266 17 16.375V10.125C17 9.8125 16.6875 9.5 16.375 9.5H12.625C12.2734 9.5 12 9.8125 12 10.125ZM6.375 12C7.39062 12 8.25 12.8594 8.25 13.875V16.375C8.25 17.4297 7.39062 18.25 6.375 18.25H2.625C1.57031 18.25 0.75 17.4297 0.75 16.375V13.875C0.75 12.8594 1.57031 12 2.625 12H6.375ZM6.375 13.25H2.625C2.27344 13.25 2 13.5625 2 13.875V16.375C2 16.7266 2.27344 17 2.625 17H6.375C6.6875 17 7 16.7266 7 16.375V13.875C7 13.5625 6.6875 13.25 6.375 13.25ZM10.75 2.625C10.75 1.60938 11.5703 0.75 12.625 0.75H16.375C17.3906 0.75 18.25 1.60938 18.25 2.625V5.125C18.25 6.17969 17.3906 7 16.375 7H12.625C11.5703 7 10.75 6.17969 10.75 5.125V2.625ZM12 2.625V5.125C12 5.47656 12.2734 5.75 12.625 5.75H16.375C16.6875 5.75 17 5.47656 17 5.125V2.625C17 2.3125 16.6875 2 16.375 2H12.625C12.2734 2 12 2.3125 12 2.625Z" fill="white"/>
</svg>
