<svg width="12" height="12" viewBox="0 0 12 12" fill="none" xmlns="http://www.w3.org/2000/svg">
<path d="M7.5 2.25H4.5L3.375 0.585938C3.21094 0.351562 3.39844 0 3.67969 0H8.29688C8.57812 0 8.76562 0.351562 8.60156 0.585938L7.5 2.25ZM4.5 3H7.5C7.57031 3.07031 7.6875 3.14062 7.80469 3.21094C9.11719 4.05469 12 5.88281 12 9.75C12 10.9922 10.9922 12 9.75 12H2.25C1.00781 12 0 10.9922 0 9.75C0 5.88281 2.85938 4.05469 4.19531 3.21094C4.28906 3.14062 4.40625 3.07031 4.5 3ZM6.46875 5.25C6.46875 4.99219 6.25781 4.78125 6 4.78125C5.71875 4.78125 5.50781 4.99219 5.50781 5.25V5.39062C5.39062 5.4375 5.27344 5.46094 5.15625 5.53125C4.80469 5.67188 4.5 5.97656 4.40625 6.39844C4.38281 6.63281 4.40625 6.86719 4.5 7.07812C4.59375 7.28906 4.75781 7.42969 4.89844 7.54688C5.17969 7.73438 5.53125 7.82812 5.8125 7.92188H5.85938C6.1875 8.03906 6.39844 8.10938 6.53906 8.20312C6.60938 8.25 6.63281 8.27344 6.63281 8.29688C6.63281 8.32031 6.65625 8.36719 6.63281 8.46094C6.63281 8.53125 6.58594 8.60156 6.44531 8.67188C6.30469 8.71875 6.07031 8.76562 5.76562 8.71875C5.625 8.69531 5.39062 8.60156 5.15625 8.53125C5.10938 8.50781 5.0625 8.48438 5.01562 8.48438C4.75781 8.39062 4.5 8.53125 4.42969 8.76562C4.33594 9.02344 4.47656 9.28125 4.71094 9.375C4.75781 9.375 4.78125 9.39844 4.82812 9.39844C5.01562 9.46875 5.29688 9.5625 5.53125 9.60938V9.75C5.53125 10.0312 5.74219 10.2422 6 10.2422C6.25781 10.2422 6.46875 10.0312 6.46875 9.75V9.63281C6.58594 9.60938 6.70312 9.5625 6.82031 9.51562C7.19531 9.375 7.5 9.07031 7.57031 8.625C7.61719 8.36719 7.59375 8.13281 7.5 7.92188C7.40625 7.71094 7.26562 7.57031 7.10156 7.45312C6.82031 7.24219 6.44531 7.125 6.14062 7.03125C5.78906 6.9375 5.57812 6.86719 5.4375 6.77344C5.36719 6.72656 5.34375 6.70312 5.34375 6.67969C5.34375 6.67969 5.32031 6.65625 5.34375 6.5625C5.34375 6.51562 5.39062 6.44531 5.53125 6.375C5.69531 6.30469 5.92969 6.28125 6.21094 6.32812C6.30469 6.32812 6.63281 6.39844 6.72656 6.42188C6.96094 6.49219 7.21875 6.32812 7.28906 6.09375C7.35938 5.83594 7.21875 5.57812 6.96094 5.50781C6.84375 5.48438 6.60938 5.4375 6.46875 5.41406V5.25Z" fill="#182550"/>
</svg>
