<svg width="8" height="14" viewBox="0 0 8 14" fill="none" xmlns="http://www.w3.org/2000/svg">
<path d="M4.60938 2.50391C5.29492 2.58008 5.92969 2.70703 6.41211 2.80859C6.74219 2.91016 6.94531 3.21484 6.86914 3.54492C6.79297 3.875 6.46289 4.07812 6.13281 4.00195C5.3457 3.82422 4.20312 3.5957 3.23828 3.69727C2.75586 3.72266 2.375 3.82422 2.0957 4.00195C1.8418 4.17969 1.63867 4.4082 1.58789 4.78906C1.51172 5.06836 1.5625 5.27148 1.63867 5.39844C1.68945 5.55078 1.8418 5.70312 2.07031 5.83008C2.55273 6.13477 3.26367 6.33789 4.12695 6.54102L4.20312 6.56641C4.99023 6.76953 5.87891 6.99805 6.56445 7.4043C6.91992 7.63281 7.22461 7.91211 7.42773 8.31836C7.65625 8.72461 7.68164 9.20703 7.60547 9.71484C7.42773 10.6289 6.76758 11.2129 5.95508 11.5176C5.54883 11.6699 5.0918 11.7715 4.60938 11.7969V13.0156C4.60938 13.3711 4.33008 13.625 4 13.625C3.64453 13.625 3.39062 13.3711 3.39062 13.0156V11.7715C3.28906 11.7461 3.21289 11.7461 3.13672 11.7461L3.11133 11.7207C2.50195 11.6445 1.38477 11.3906 0.699219 11.0859C0.394531 10.9336 0.242188 10.5781 0.394531 10.2734C0.521484 9.96875 0.876953 9.81641 1.18164 9.96875C1.71484 10.1973 2.73047 10.4512 3.28906 10.5273C4.20312 10.6543 4.96484 10.5781 5.52344 10.375C6.05664 10.1719 6.33594 9.86719 6.38672 9.48633C6.46289 9.18164 6.41211 9.00391 6.33594 8.87695C6.28516 8.72461 6.13281 8.57227 5.9043 8.44531C5.42188 8.14062 4.71094 7.9375 3.84766 7.73438L3.77148 7.70898C2.98438 7.50586 2.0957 7.27734 1.41016 6.87109C1.05469 6.64258 0.75 6.36328 0.546875 5.95703C0.318359 5.52539 0.292969 5.06836 0.369141 4.56055C0.521484 3.82422 0.902344 3.31641 1.43555 2.98633C1.94336 2.65625 2.55273 2.5293 3.13672 2.47852C3.21289 2.47852 3.28906 2.45312 3.39062 2.45312V1.23438C3.39062 0.904297 3.64453 0.625 4 0.625C4.33008 0.625 4.60938 0.904297 4.60938 1.23438V2.50391Z" fill="#182550"/>
</svg>
