<svg width="12" height="11" viewBox="0 0 12 11" fill="none" xmlns="http://www.w3.org/2000/svg">
<path d="M10.707 1.94141C11.0781 2.3125 11.0781 2.89844 10.707 3.26953L4.4375 9.53906C4.18359 9.77344 3.89062 9.94922 3.55859 10.0469L1.19531 10.75C1.13672 10.7695 1.07812 10.75 1.03906 10.7109C1 10.6719 0.980469 10.6133 1 10.5547L1.70312 8.19141C1.78125 7.85938 1.97656 7.56641 2.21094 7.3125L8.48047 1.04297C8.85156 0.671875 9.4375 0.671875 9.80859 1.04297L10.707 1.94141ZM7.40625 2.56641L9.18359 4.34375L10.4922 3.03516C10.7266 2.80078 10.7266 2.41016 10.4922 2.15625L9.59375 1.25781C9.33984 1.02344 8.94922 1.02344 8.69531 1.25781L7.40625 2.56641ZM7.17188 2.80078L2.42578 7.54688C2.23047 7.74219 2.07422 7.99609 1.99609 8.26953L1.37109 10.3789L3.48047 9.75391C3.75391 9.67578 4.00781 9.51953 4.20312 9.32422L8.94922 4.57812L7.17188 2.80078Z" fill="#182550"/>
</svg>
