<svg width="21" height="15" viewBox="0 0 21 15" fill="none" xmlns="http://www.w3.org/2000/svg">
<path d="M10.5 11.25C9.83594 11.25 9.17188 11.0547 8.625 10.625L0.5 4.29688V13.125C0.5 14.1797 1.32031 15 2.375 15H18.625C19.6406 15 20.5 14.1797 20.5 13.125V4.29688L12.3359 10.625C11.7891 11.0547 11.125 11.25 10.5 11.25ZM1.125 3.20312L9.40625 9.64844C10.0312 10.1172 10.9297 10.1172 11.5547 9.64844L19.8359 3.20312C20.2266 2.89062 20.5 2.38281 20.5 1.875C20.5 0.859375 19.6406 0 18.625 0H2.375C1.32031 0 0.5 0.859375 0.5 1.875C0.5 2.38281 0.734375 2.89062 1.125 3.20312Z" fill="#182550"/>
</svg>
