<svg width="9" height="10" viewBox="0 0 9 10" fill="none" xmlns="http://www.w3.org/2000/svg">
<path d="M5.3125 0.53125C5.3125 0.453125 5.37109 0.375 5.46875 0.375H8.59375C8.67188 0.375 8.75 0.453125 8.75 0.53125V3.8125C8.75 3.91016 8.67188 3.96875 8.59375 3.96875C8.49609 3.96875 8.4375 3.91016 8.4375 3.8125V0.921875L3.37891 5.96094C3.32031 6.01953 3.22266 6.01953 3.16406 5.96094C3.10547 5.90234 3.10547 5.80469 3.16406 5.74609L8.20312 0.6875H5.46875C5.37109 0.6875 5.3125 0.628906 5.3125 0.53125ZM0 2.40625C0 1.97656 0.332031 1.625 0.78125 1.625H3.125C3.20312 1.625 3.28125 1.70312 3.28125 1.78125C3.28125 1.87891 3.20312 1.9375 3.125 1.9375H0.78125C0.507812 1.9375 0.3125 2.15234 0.3125 2.40625V8.34375C0.3125 8.61719 0.507812 8.8125 0.78125 8.8125H6.71875C6.97266 8.8125 7.1875 8.61719 7.1875 8.34375V6C7.1875 5.92188 7.24609 5.84375 7.34375 5.84375C7.42188 5.84375 7.5 5.92188 7.5 6V8.34375C7.5 8.79297 7.14844 9.125 6.71875 9.125H0.78125C0.332031 9.125 0 8.79297 0 8.34375V2.40625Z" fill="#182550"/>
</svg>
