<svg width="15" height="14" viewBox="0 0 15 14" fill="none" xmlns="http://www.w3.org/2000/svg">
<path d="M1.37695 8.69336L6.67969 13.6445C6.88477 13.8496 7.17773 13.9375 7.5 13.9375C7.79297 13.9375 8.08594 13.8496 8.29102 13.6445L13.5938 8.69336C14.4727 7.87305 15 6.70117 15 5.4707V5.32422C15 3.27344 13.5059 1.51562 11.4844 1.19336C10.166 0.958984 8.78906 1.39844 7.85156 2.33594L7.5 2.6875L7.14844 2.33594C6.18164 1.39844 4.83398 0.958984 3.48633 1.19336C1.46484 1.51562 0 3.27344 0 5.32422V5.4707C0 6.70117 0.498047 7.87305 1.37695 8.69336Z" fill="white"/>
</svg>
