<svg width="14" height="14" viewBox="0 0 14 14" fill="none" xmlns="http://www.w3.org/2000/svg">
<path d="M7 2.80859L7.60938 1.76758C8.01562 1.05664 8.75195 0.625 9.56445 0.625H9.64062C10.8594 0.625 11.875 1.64062 11.875 2.85938C11.875 3.24023 11.7734 3.57031 11.6211 3.875H12.2812C12.9414 3.875 13.5 4.43359 13.5 5.09375V6.71875C13.5 7.25195 13.1445 7.70898 12.6875 7.88672V12C12.6875 12.9141 11.9512 13.625 11.0625 13.625H2.9375C2.02344 13.625 1.3125 12.9141 1.3125 12V7.88672C0.830078 7.70898 0.5 7.25195 0.5 6.71875V5.09375C0.5 4.43359 1.0332 3.875 1.71875 3.875H2.35352C2.20117 3.57031 2.125 3.24023 2.125 2.85938C2.125 1.64062 3.11523 0.625 4.35938 0.625H4.41016C5.22266 0.625 5.95898 1.05664 6.36523 1.76758L7 2.80859ZM7.8125 5.09375V6.71875H12.2812V5.09375H7.8125ZM6.1875 5.09375H1.71875V6.71875H6.1875V5.09375ZM6.1875 7.9375H2.53125V12C2.53125 12.2285 2.70898 12.4062 2.9375 12.4062H6.1875V7.9375ZM7.8125 12.4062H11.0625C11.2656 12.4062 11.4688 12.2285 11.4688 12V7.9375H7.8125V12.4062ZM9.64062 3.875C10.1992 3.875 10.6562 3.44336 10.6562 2.85938C10.6562 2.30078 10.1992 1.84375 9.64062 1.84375H9.56445C9.18359 1.84375 8.85352 2.04688 8.65039 2.37695L7.76172 3.875H9.64062ZM6.21289 3.875L5.32422 2.37695C5.12109 2.04688 4.79102 1.84375 4.41016 1.84375H4.35938C3.77539 1.84375 3.34375 2.30078 3.34375 2.85938C3.34375 3.44336 3.77539 3.875 4.35938 3.875H6.21289Z" fill="#182550"/>
</svg>
