<svg width="21" height="19" viewBox="0 0 21 19" fill="none" xmlns="http://www.w3.org/2000/svg">
<path d="M10.2109 3.25L10.6797 2.82031C11.9688 1.53125 13.8047 0.945312 15.5625 1.25781C18.2578 1.6875 20.25 4.03125 20.25 6.76562V6.96094C20.25 8.60156 19.5469 10.1641 18.375 11.2578L11.3047 17.8594C11.0312 18.1328 10.6406 18.25 10.25 18.25C9.82031 18.25 9.42969 18.1328 9.15625 17.8594L2.08594 11.2578C0.914062 10.1641 0.25 8.60156 0.25 6.96094V6.76562C0.25 4.03125 2.20312 1.6875 4.89844 1.25781C6.65625 0.945312 8.49219 1.53125 9.78125 2.82031L10.2109 3.25ZM10.2109 5.04688L8.88281 3.67969C7.90625 2.70312 6.5 2.23438 5.09375 2.46875C3.02344 2.82031 1.46094 4.61719 1.46094 6.76562V6.96094C1.46094 8.25 2.00781 9.46094 2.94531 10.3203L10.0156 16.9219C10.0547 17 10.1328 17 10.2109 17C10.3281 17 10.4062 17 10.4453 16.9219L17.5156 10.3203C18.4531 9.46094 19 8.25 19 6.96094V6.76562C19 4.61719 17.4375 2.82031 15.3672 2.46875C13.9609 2.23438 12.5547 2.70312 11.5781 3.67969L10.2109 5.04688Z" fill="white"/>
</svg>
