<svg width="12" height="12" viewBox="0 0 12 12" fill="none" xmlns="http://www.w3.org/2000/svg">
<path d="M6 12C9.30469 12 12 9.32812 12 6C12 2.69531 9.30469 0 6 0C2.67188 0 0 2.69531 0 6C0 9.32812 2.67188 12 6 12ZM6 3C6.30469 3 6.5625 3.25781 6.5625 3.5625V6.1875C6.5625 6.51562 6.30469 6.75 6 6.75C5.67188 6.75 5.4375 6.51562 5.4375 6.1875V3.5625C5.4375 3.25781 5.67188 3 6 3ZM6.75 8.25C6.75 8.67188 6.39844 9 6 9C5.57812 9 5.25 8.67188 5.25 8.25C5.25 7.85156 5.57812 7.5 6 7.5C6.39844 7.5 6.75 7.85156 6.75 8.25Z" fill="#182550"/>
</svg>
