<svg width="19" height="19" viewBox="0 0 19 19" fill="none" xmlns="http://www.w3.org/2000/svg">
<path d="M9.5 0.25C4.50781 0.25 0.5 4.29297 0.5 9.25C0.5 14.2422 4.50781 18.25 9.5 18.25C14.457 18.25 18.5 14.2422 18.5 9.25C18.5 4.29297 14.457 0.25 9.5 0.25ZM9.5 17.125C5.14062 17.125 1.625 13.6094 1.625 9.25C1.625 4.92578 5.14062 1.375 9.5 1.375C13.8242 1.375 17.375 4.92578 17.375 9.25C17.375 13.6094 13.8242 17.125 9.5 17.125ZM9.5 6.71875C9.95703 6.71875 10.3438 6.36719 10.3438 5.875C10.3438 5.41797 9.95703 5.03125 9.5 5.03125C9.00781 5.03125 8.65625 5.41797 8.65625 5.875C8.65625 6.36719 9.00781 6.71875 9.5 6.71875ZM11.1875 12.625H10.0625V8.6875C10.0625 8.40625 9.78125 8.125 9.5 8.125H8.375C8.05859 8.125 7.8125 8.40625 7.8125 8.6875C7.8125 9.00391 8.05859 9.25 8.375 9.25H8.9375V12.625H7.8125C7.49609 12.625 7.25 12.9062 7.25 13.1875C7.25 13.5039 7.49609 13.75 7.8125 13.75H11.1875C11.4688 13.75 11.75 13.5039 11.75 13.1875C11.75 12.9062 11.4688 12.625 11.1875 12.625Z" fill="#A6A6A6"/>
</svg>
