<svg width="56" height="42" viewBox="0 0 56 42" fill="none" xmlns="http://www.w3.org/2000/svg">
<path d="M49 0H7C3.0625 0 0 3.17188 0 7V35C0 38.9375 3.0625 42 7 42H49C52.8281 42 56 38.9375 56 35V7C56 3.17188 52.8281 0 49 0ZM54.25 35C54.25 37.9531 51.8438 40.25 49 40.25H7C4.04688 40.25 1.75 37.9531 1.75 35V12.25L24.2812 30.2969C25.375 31.0625 26.5781 31.5 28 31.5C29.3125 31.5 30.625 31.0625 31.6094 30.2969L54.25 12.25V35ZM54.25 9.95312L30.5156 28.875C29.0938 30.0781 26.7969 30.0781 25.375 28.875L1.75 9.95312V7C1.75 4.15625 4.04688 1.75 7 1.75H49C51.8438 1.75 54.25 4.15625 54.25 7V9.95312Z" fill="#040918"/>
</svg>
