<svg width="23" height="21" viewBox="0 0 23 21" fill="none" xmlns="http://www.w3.org/2000/svg">
<path d="M10.5625 4.875C10.5625 4.36719 10.9531 3.9375 11.5 3.9375C12.0078 3.9375 12.4375 4.36719 12.4375 4.875C12.4375 5.42188 12.0078 5.8125 11.5 5.8125C10.9531 5.8125 10.5625 5.42188 10.5625 4.875ZM10.9141 12.6875C9.66406 11.125 6.8125 7.33594 6.8125 5.1875C6.8125 2.60938 8.88281 0.5 11.5 0.5C14.0781 0.5 16.1875 2.60938 16.1875 5.1875C16.1875 7.33594 13.2969 11.125 12.0469 12.6875C11.7734 13.0781 11.1875 13.0781 10.9141 12.6875ZM14.5469 6.55469C14.8203 5.92969 14.9375 5.5 14.9375 5.1875C14.9375 3.3125 13.375 1.75 11.5 1.75C9.58594 1.75 8.0625 3.3125 8.0625 5.1875C8.0625 5.5 8.14062 5.92969 8.41406 6.55469C8.64844 7.17969 9.03906 7.84375 9.42969 8.50781C10.0938 9.60156 10.875 10.6562 11.5 11.4375C12.0859 10.6562 12.8672 9.60156 13.5312 8.50781C13.9219 7.84375 14.3125 7.17969 14.5469 6.55469ZM16.0703 9.21094C16.0703 9.25 16.0312 9.25 15.9922 9.25C16.3047 8.70312 16.6172 8.11719 16.8516 7.57031L21.4609 5.73438C22.0469 5.5 22.75 5.92969 22.75 6.59375V17.1797C22.75 17.5703 22.5156 17.9219 22.125 18.0391L16.0703 20.4609C15.9531 20.5391 15.8359 20.5391 15.6797 20.5L7.125 18.0391L1.5 20.3047C0.914062 20.5391 0.25 20.1094 0.25 19.4453V8.85938C0.25 8.46875 0.445312 8.11719 0.835938 8L5.64062 6.04688C5.71875 6.47656 5.83594 6.86719 5.99219 7.25781L1.5 9.05469V18.9766L6.5 16.9844V12.375C6.5 12.0625 6.77344 11.75 7.125 11.75C7.4375 11.75 7.75 12.0625 7.75 12.375V16.9062L15.25 19.0547V12.375C15.25 12.0625 15.5234 11.75 15.875 11.75C16.1875 11.75 16.5 12.0625 16.5 12.375V18.9766L21.5 16.9844V7.0625L16.0703 9.21094Z" fill="white"/>
</svg>
