<svg width="21" height="17" viewBox="0 0 21 17" fill="none" xmlns="http://www.w3.org/2000/svg">
<path d="M3.71875 5.55469C3.60156 5.67188 3.44531 5.75 3.25 5.75C3.09375 5.78906 2.89844 5.71094 2.78125 5.59375L0.90625 3.71875C0.671875 3.48438 0.671875 3.05469 0.90625 2.82031C1.14062 2.58594 1.57031 2.58594 1.80469 2.82031L3.17188 4.22656L5.86719 0.984375C6.10156 0.710938 6.49219 0.710938 6.76562 0.90625C7.03906 1.14062 7.03906 1.53125 6.84375 1.80469L3.71875 5.55469ZM3.71875 11.8047C3.60156 11.9219 3.44531 12 3.25 12C3.09375 12.0391 2.89844 11.9609 2.78125 11.8438L0.90625 9.96875C0.671875 9.73438 0.671875 9.30469 0.90625 9.07031C1.14062 8.83594 1.57031 8.83594 1.80469 9.07031L3.17188 10.4766L5.86719 7.23438C6.10156 6.96094 6.49219 6.96094 6.76562 7.15625C7.03906 7.39062 7.03906 7.78125 6.84375 8.05469L3.71875 11.8047ZM8.21094 3.25C8.21094 2.9375 8.52344 2.625 8.83594 2.625H20.125C20.4375 2.625 20.75 2.9375 20.75 3.25C20.75 3.60156 20.4375 3.875 20.125 3.875H8.83594C8.52344 3.875 8.21094 3.60156 8.21094 3.25ZM8.21094 9.5C8.21094 9.1875 8.52344 8.875 8.83594 8.875H20.125C20.4375 8.875 20.75 9.1875 20.75 9.5C20.75 9.85156 20.4375 10.125 20.125 10.125H8.83594C8.52344 10.125 8.21094 9.85156 8.21094 9.5ZM6.96094 15.75C6.96094 15.4375 7.27344 15.125 7.58594 15.125H20.125C20.4375 15.125 20.75 15.4375 20.75 15.75C20.75 16.1016 20.4375 16.375 20.125 16.375H7.58594C7.27344 16.375 6.96094 16.1016 6.96094 15.75ZM3.21094 17C2.54688 17 1.96094 16.4531 1.96094 15.75C1.96094 15.0859 2.54688 14.5 3.21094 14.5C3.91406 14.5 4.46094 15.0859 4.46094 15.75C4.46094 16.4531 3.91406 17 3.21094 17Z" fill="white"/>
</svg>
