<svg width="46" height="41" viewBox="0 0 46 41" fill="none" xmlns="http://www.w3.org/2000/svg">
<path d="M16.75 32.875C16.75 33.2656 16.4375 33.5 16.125 33.5C15.7344 33.5 15.5 33.2656 15.5 32.875V24.125C15.5 23.8125 15.7344 23.5 16.125 23.5C16.4375 23.5 16.75 23.8125 16.75 24.125V32.875ZM23 23.5C23.3125 23.5 23.625 23.8125 23.625 24.125V32.875C23.625 33.2656 23.3125 33.5 23 33.5C22.6094 33.5 22.375 33.2656 22.375 32.875V24.125C22.375 23.8125 22.6094 23.5 23 23.5ZM30.5 32.875C30.5 33.2656 30.1875 33.5 29.875 33.5C29.4844 33.5 29.25 33.2656 29.25 32.875V24.125C29.25 23.8125 29.4844 23.5 29.875 23.5C30.1875 23.5 30.5 23.8125 30.5 24.125V32.875ZM27.9219 1.39062L35.8125 16H44.875C45.1875 16 45.5 16.3125 45.5 16.625C45.5 17.0156 45.1875 17.25 44.875 17.25H42.6875L37.6875 37.25C37.0625 39.4375 35.1094 41 32.8438 41H13.0781C10.8125 41 8.85938 39.4375 8.23438 37.25L3.3125 17.25H1.125C0.734375 17.25 0.5 17.0156 0.5 16.625C0.5 16.3125 0.734375 16 1.125 16H10.1094L18 1.39062C18.2344 1.07812 18.5469 0.921875 18.8594 1.07812C19.1719 1.3125 19.3281 1.625 19.1719 1.9375L11.5156 16H34.4062L26.75 1.9375C26.5938 1.625 26.75 1.3125 27.0625 1.07812C27.375 0.921875 27.6875 1.07812 27.9219 1.39062ZM9.48438 36.9375C9.875 38.5781 11.3594 39.75 13.0781 39.75H32.8438C34.5625 39.75 36.0469 38.5781 36.4375 36.9375L41.3594 17.25H4.5625L9.48438 36.9375Z" fill="#182550"/>
</svg>
