<svg width="14" height="14" viewBox="0 0 14 14" fill="none" xmlns="http://www.w3.org/2000/svg">
<path d="M5.17188 4.6875C5.29883 4.6875 5.42578 4.66211 5.55273 4.56055C6.4668 3.79883 6.97461 2.68164 6.97461 1.48828V1.23438C6.97461 0.904297 6.7207 0.625 6.39062 0.625C6.08594 0.625 5.80664 0.904297 5.80664 1.23438V1.48828C5.80664 2.32617 5.45117 3.08789 4.81641 3.62109C4.51172 3.84961 4.48633 4.23047 4.68945 4.48438C4.81641 4.63672 4.99414 4.6875 5.17188 4.6875ZM2.125 2.25C2.55664 2.25 2.91211 1.86914 2.91211 1.4375C2.91211 1.00586 2.53125 0.650391 2.125 0.650391C1.66797 0.650391 1.3125 1.03125 1.3125 1.4375C1.3125 1.89453 1.66797 2.25 2.125 2.25ZM12.8652 7.125H12.6113C11.4434 7.125 10.3262 7.6582 9.56445 8.57227C9.36133 8.82617 9.38672 9.20703 9.64062 9.43555C9.76758 9.53711 9.89453 9.5625 10.0215 9.5625C10.1738 9.5625 10.3516 9.51172 10.4785 9.35938C11.0371 8.72461 11.7988 8.34375 12.6367 8.34375H12.8906C13.2207 8.34375 13.4746 8.08984 13.4746 7.73438C13.4746 7.4043 13.2207 7.125 12.8652 7.125ZM12.6621 11.1875C12.2051 11.1875 11.875 11.5684 11.875 12C11.875 12.4316 12.2305 12.7871 12.6621 12.7871C13.0684 12.7871 13.4492 12.4062 13.4492 12C13.4746 11.5684 13.1191 11.1875 12.6621 11.1875ZM12.6621 3.875C12.2051 3.875 11.875 4.25586 11.875 4.6875C11.875 5.11914 12.2305 5.47461 12.6621 5.47461C13.0684 5.47461 13.4492 5.09375 13.4492 4.6875C13.4746 4.25586 13.1191 3.875 12.6621 3.875ZM10.377 5.09375C10.9102 4.48438 10.8848 3.875 10.834 3.44336C10.8086 3.0625 10.8086 2.88477 11.0117 2.65625C11.2148 2.42773 11.3926 2.40234 11.7734 2.35156C12.2051 2.32617 12.8145 2.27539 13.3477 1.64062C13.5508 1.38672 13.5254 1.00586 13.2715 0.777344C13.0176 0.574219 12.6367 0.599609 12.4082 0.853516C12.2051 1.08203 12.0527 1.10742 11.6719 1.13281C11.2148 1.18359 10.6309 1.23438 10.0977 1.86914C9.56445 2.47852 9.58984 3.08789 9.64062 3.51953C9.66602 3.90039 9.66602 4.07812 9.46289 4.30664C9.25977 4.56055 9.08203 4.56055 8.70117 4.61133C8.26953 4.63672 7.66016 4.6875 7.12695 5.32227C6.92383 5.57617 6.94922 5.95703 7.20312 6.18555C7.30469 6.28711 7.45703 6.3125 7.58398 6.3125C7.73633 6.3125 7.91406 6.26172 8.04102 6.10938C8.24414 5.88086 8.42188 5.85547 8.77734 5.83008C9.25977 5.7793 9.84375 5.72852 10.377 5.09375ZM4.30859 5.75391C4.15625 5.60156 3.95312 5.5 3.72461 5.5C3.67383 5.5 3.62305 5.52539 3.57227 5.52539C3.29297 5.60156 3.06445 5.7793 2.96289 6.0332L0.550781 12.5332C0.449219 12.8379 0.525391 13.168 0.753906 13.3965C0.880859 13.5488 1.08398 13.625 1.3125 13.625C1.38867 13.625 1.49023 13.625 1.5918 13.5742L8.06641 11.1367C8.32031 11.0605 8.52344 10.832 8.57422 10.5527C8.625 10.2988 8.54883 10.0195 8.3457 9.81641L4.30859 5.75391ZM1.99805 12.127L2.81055 9.91797L4.20703 11.3145L1.99805 12.127ZM5.45117 10.832L3.29297 8.67383L3.90234 7.04883L7.07617 10.2227L5.45117 10.832Z" fill="#182550"/>
</svg>
