<svg width="11" height="12" viewBox="0 0 11 12" fill="none" xmlns="http://www.w3.org/2000/svg">
<path d="M4.08194 1.98239L4.83388 3.24994H4.81239H3.26555C2.77142 3.24994 2.4062 2.88471 2.4062 2.39058C2.4062 1.91794 2.77142 1.53123 3.26555 1.53123H3.30852C3.63078 1.53123 3.93155 1.7031 4.08194 1.98239ZM1.37497 2.39058C1.37497 2.71284 1.43942 2.99213 1.56832 3.24994H0.687485C0.300775 3.24994 0 3.5722 0 3.93742V5.31239C0 5.6991 0.300775 5.99988 0.687485 5.99988H10.3123C10.6775 5.99988 10.9998 5.6991 10.9998 5.31239V3.93742C10.9998 3.5722 10.6775 3.24994 10.3123 3.24994H9.40995C9.53885 2.99213 9.62479 2.71284 9.62479 2.39058C9.62479 1.35936 8.76543 0.5 7.7342 0.5H7.66975C6.98227 0.5 6.35923 0.865226 6.01549 1.46678L5.49988 2.34762L4.96278 1.46678C4.61904 0.865226 3.99601 0.5 3.30852 0.5H3.26555C2.21284 0.5 1.37497 1.35936 1.37497 2.39058ZM8.59356 2.39058C8.59356 2.88471 8.20685 3.24994 7.7342 3.24994H6.18736H6.14439L6.89633 1.98239C7.0682 1.7031 7.34749 1.53123 7.66975 1.53123H7.7342C8.20685 1.53123 8.59356 1.91794 8.59356 2.39058ZM0.687485 6.68736V10.4685C0.687485 11.0486 1.13865 11.4998 1.71871 11.4998H4.81239V6.68736H0.687485ZM6.18736 11.4998H9.28104C9.83963 11.4998 10.3123 11.0486 10.3123 10.4685V6.68736H6.18736V11.4998Z" fill="white"/>
</svg>
