<svg width="15" height="15" viewBox="0 0 15 15" fill="none" xmlns="http://www.w3.org/2000/svg">
<path d="M4.48438 1.43359C4.29297 0.914062 3.71875 0.667969 3.19922 0.804688L0.792969 1.46094C0.328125 1.59766 0 2.00781 0 2.5C0 9.28125 5.46875 14.75 12.25 14.75C12.7422 14.75 13.1523 14.4219 13.2891 13.957L13.9453 11.5508C14.082 11.0312 13.8359 10.457 13.3164 10.2656L10.6914 9.17188C10.2539 8.98047 9.73438 9.08984 9.43359 9.47266L8.3125 10.8125C6.39844 9.91016 4.83984 8.35156 3.9375 6.4375L5.27734 5.31641C5.66016 5.01562 5.76953 4.49609 5.57812 4.05859L4.48438 1.43359Z" fill="#182550"/>
</svg>
