<svg width="18" height="16" viewBox="0 0 18 16" fill="none" xmlns="http://www.w3.org/2000/svg">
<path d="M10.378 1.23077C10.378 0.576923 9.73195 0 8.99978 0C8.22455 0 7.62159 0.576923 7.62159 1.23077V6.76923H1.4197C0.644465 6.76923 0.0415039 7.34615 0.0415039 8C0.0415039 8.69231 0.644465 9.23077 1.4197 9.23077H7.62159V14.7692C7.62159 15.4615 8.22455 16 8.99978 16C9.73195 16 10.378 15.4615 10.378 14.7692V9.23077H16.5799C17.312 9.23077 17.9581 8.69231 17.9581 8C17.9581 7.34615 17.312 6.76923 16.5799 6.76923H10.378V1.23077Z" fill="white"/>
</svg>
