<svg width="53" height="53" viewBox="0 0 53 53" fill="none" xmlns="http://www.w3.org/2000/svg">
<rect x="0.373239" y="0.373239" width="52.2535" height="52.2535" rx="26.1268" fill="white"/>
<path d="M26.5 26.8028C30.5823 26.8028 33.9648 23.4787 33.9648 19.338C33.9648 15.2557 30.5823 11.8732 26.5 11.8732C22.3594 11.8732 19.0352 15.2557 19.0352 19.338C19.0352 23.4787 22.3594 26.8028 26.5 26.8028ZM26.5 12.8063C30.0574 12.8063 33.0317 15.7806 33.0317 19.338C33.0317 22.9538 30.0574 25.8697 26.5 25.8697C22.8842 25.8697 19.9683 22.9538 19.9683 19.338C19.9683 15.7806 22.8842 12.8063 26.5 12.8063ZM29.4159 29.6021H23.5257C17.9272 29.6021 13.4366 34.151 13.4366 39.7496C13.4366 40.8576 14.3114 41.7324 15.4195 41.7324H37.5222C38.6303 41.7324 39.5634 40.8576 39.5634 39.7496C39.5634 34.151 35.0145 29.6021 29.4159 29.6021ZM37.5222 40.7993H15.4195C14.8363 40.7993 14.3697 40.3327 14.3697 39.7496C14.3697 34.6758 18.452 30.5352 23.5257 30.5352H29.4159C34.4897 30.5352 38.6303 34.6758 38.6303 39.7496C38.6303 40.3327 38.1054 40.7993 37.5222 40.7993Z" fill="#182550"/>
<rect x="0.373239" y="0.373239" width="52.2535" height="52.2535" rx="26.1268" stroke="#182550" stroke-width="0.746479"/>
</svg>
