<svg width="17" height="17" viewBox="0 0 17 17" fill="none" xmlns="http://www.w3.org/2000/svg">
<path d="M16.009 1.20259V6.71983C16.009 7.20259 15.6297 7.54741 15.1814 7.54741H9.66421C9.18145 7.54741 8.83662 7.20259 8.83662 6.71983C8.83662 6.27155 9.18145 5.89224 9.66421 5.89224H13.1125C12.078 3.92672 10.009 2.5819 7.73317 2.5819C4.35386 2.5819 1.66421 5.30603 1.66421 8.65086C1.66421 12.0302 4.35386 14.7198 7.73317 14.7198C9.14696 14.7198 10.5263 14.2371 11.5952 13.3405C11.9401 13.0302 12.4573 13.0991 12.7677 13.444C13.0435 13.7888 13.009 14.306 12.6642 14.6164C11.2849 15.7543 9.52627 16.375 7.69869 16.375C3.45731 16.375 0.0090332 12.9267 0.0090332 8.65086C0.0090332 4.40948 3.45731 0.961207 7.69869 0.961207C10.4573 0.961207 12.9746 2.44397 14.3539 4.71983V1.20259C14.3539 0.75431 14.6987 0.375 15.1814 0.375C15.6297 0.375 16.009 0.75431 16.009 1.20259Z" fill="#182550"/>
</svg>
