<svg width="46" height="46" viewBox="0 0 46 46" fill="none" xmlns="http://www.w3.org/2000/svg">
<rect width="46" height="46" rx="23" fill="#79C54A"/>
<path d="M18.373 16.625C17.1602 16.625 16.2168 17.6562 16.2168 18.875C16.2168 20.1406 17.1602 21.125 18.373 21.125C19.541 21.125 20.5293 20.1406 20.5293 18.875C20.5293 17.6562 19.541 16.625 18.373 16.625ZM31.625 12.5H14.375C12.8027 12.5 11.5 13.8594 11.5 15.5V30.5C11.5 32.1875 12.8027 33.5 14.375 33.5H31.625C33.1973 33.5 34.5 32.1875 34.5 30.5V15.5C34.5 13.8594 33.2422 12.5 31.625 12.5ZM32.3438 30.2188L26.1895 21.5C26.0547 21.2656 25.8301 21.125 25.5605 21.125C25.2461 21.125 25.0215 21.2656 24.8418 21.5L20.0801 28.25L18.418 26.0938C18.2383 25.9062 18.0137 25.7656 17.7441 25.7656C17.4746 25.7656 17.25 25.9062 17.0703 26.0938L13.7012 30.5L13.6562 15.5C13.6562 15.125 14.0156 14.75 14.375 14.75H31.625C32.0293 14.75 32.3438 15.125 32.3438 15.5V30.2188Z" fill="white"/>
<circle cx="31.5" cy="30.5" r="7" fill="#79C54A" stroke="#79C54A"/>
<path d="M31.5 37C35.0801 37 38 34.1055 38 30.5C38 26.9199 35.0801 24 31.5 24C27.8945 24 25 26.9199 25 30.5C25 34.1055 27.8945 37 31.5 37ZM30.8906 32.7344V31.1094H29.2656C28.9102 31.1094 28.6562 30.8555 28.6562 30.5C28.6562 30.1699 28.9102 29.8906 29.2656 29.8906H30.8906V28.2656C30.8906 27.9355 31.1445 27.6562 31.5 27.6562C31.8301 27.6562 32.1094 27.9355 32.1094 28.2656V29.8906H33.7344C34.0645 29.8906 34.3438 30.1699 34.3438 30.5C34.3438 30.8555 34.0645 31.1094 33.7344 31.1094H32.1094V32.7344C32.1094 33.0898 31.8301 33.3438 31.5 33.3438C31.1445 33.3438 30.8906 33.0898 30.8906 32.7344Z" fill="white"/>
</svg>
