<svg width="12" height="12" viewBox="0 0 12 12" fill="none" xmlns="http://www.w3.org/2000/svg">
<path d="M6 12C9.30469 12 12 9.32812 12 6C12 2.69531 9.30469 0 6 0C2.67188 0 0 2.69531 0 6C0 9.32812 2.67188 12 6 12ZM8.39062 4.28906L6.42188 8.88281C6.32812 9.07031 6.14062 9.1875 5.95312 9.1875C5.90625 9.1875 5.88281 9.1875 5.83594 9.1875C5.60156 9.14062 5.4375 8.92969 5.4375 8.67188V6.5625H3.32812C3.07031 6.5625 2.85938 6.39844 2.8125 6.16406C2.76562 5.92969 2.88281 5.67188 3.11719 5.57812L7.71094 3.60938C7.89844 3.53906 8.13281 3.58594 8.27344 3.72656C8.4375 3.86719 8.46094 4.10156 8.39062 4.28906Z" fill="#182550"/>
</svg>
