<svg width="25" height="24" viewBox="0 0 25 24" fill="none" xmlns="http://www.w3.org/2000/svg">
<path d="M8 12C8 9.51562 9.96875 7.5 12.5 7.5C14.9844 7.5 17 9.51562 17 12C17 14.4844 14.9844 16.5 12.5 16.5C9.96875 16.5 8 14.4844 8 12ZM12.5 9.75C11.2344 9.75 10.25 10.7812 10.25 12C10.25 13.2656 11.2344 14.25 12.5 14.25C13.7188 14.25 14.75 13.2656 14.75 12C14.75 10.7812 13.7188 9.75 12.5 9.75ZM14.2344 0C15.2656 0 16.1562 0.75 16.3906 1.73438L16.7656 3.28125C17.1875 3.46875 17.5625 3.70312 17.8906 3.9375L19.4375 3.46875C20.4219 3.1875 21.5 3.60938 22.0156 4.5L23.75 7.54688C24.2656 8.4375 24.0781 9.5625 23.3281 10.2656L22.2031 11.3438C22.2031 11.5781 22.25 11.8125 22.25 12C22.25 12.2344 22.2031 12.4688 22.2031 12.6562L23.3281 13.7812C24.0781 14.4844 24.2656 15.6094 23.75 16.5L22.0156 19.5469C21.5 20.4375 20.4219 20.8594 19.4375 20.5781L17.8906 20.1094C17.5625 20.3438 17.1875 20.5781 16.7656 20.7656L16.3906 22.3125C16.1562 23.2969 15.2656 24 14.2344 24H10.7188C9.6875 24 8.79688 23.2969 8.5625 22.3125L8.1875 20.7656C7.76562 20.5781 7.39062 20.3438 7.0625 20.1094L5.51562 20.5781C4.53125 20.8594 3.45312 20.4375 2.9375 19.5469L1.20312 16.5C0.6875 15.6094 0.875 14.4844 1.625 13.7812L2.75 12.6562C2.75 12.4688 2.75 12.2344 2.75 12C2.75 11.8125 2.75 11.5781 2.75 11.3438L1.625 10.2656C0.875 9.5625 0.6875 8.4375 1.20312 7.54688L2.9375 4.5C3.45312 3.60938 4.53125 3.1875 5.51562 3.46875L7.0625 3.9375C7.39062 3.70312 7.76562 3.46875 8.1875 3.28125L8.5625 1.73438C8.79688 0.75 9.6875 0 10.7188 0H14.2344ZM10.1094 4.875L9.59375 5.10938C8.98438 5.34375 8.42188 5.67188 7.95312 6.04688L7.48438 6.42188L4.90625 5.625L3.17188 8.67188L5.09375 10.5L5.04688 11.0625C5 11.3906 5 11.7188 5 12C5 12.3281 5 12.6562 5.04688 12.9844L5.09375 13.5469L3.17188 15.375L4.90625 18.4219L7.48438 17.625L7.95312 18C8.42188 18.375 8.98438 18.7031 9.59375 18.9375L10.1094 19.1719L10.7188 21.75H14.2344L14.8438 19.1719L15.3594 18.9375C15.9688 18.7031 16.5312 18.375 17 18L17.4688 17.625L20.0469 18.4219L21.7812 15.375L19.8594 13.5469L19.9062 12.9844C19.9531 12.6562 20 12.3281 20 12C20 11.7188 19.9531 11.3906 19.9062 11.0625L19.8594 10.5L21.7812 8.67188L20.0469 5.625L17.4688 6.42188L17 6.04688C16.5312 5.67188 15.9688 5.34375 15.3594 5.10938L14.8438 4.875L14.2344 2.25H10.7188L10.1094 4.875Z" fill="white"/>
</svg>
