<svg width="18" height="18" viewBox="0 0 18 18" fill="none" xmlns="http://www.w3.org/2000/svg">
<path d="M14 7.75C16.0703 7.75 17.75 6.07031 17.75 4C17.75 1.92969 16.0703 0.25 14 0.25C11.9297 0.25 10.25 1.92969 10.25 4C10.25 4.15625 10.25 4.3125 10.25 4.46875L6.57812 6.30469C5.91406 5.67969 4.97656 5.25 4 5.25C1.92969 5.25 0.25 6.92969 0.25 9C0.25 11.0703 1.92969 12.75 4 12.75C4.97656 12.75 5.91406 12.3594 6.57812 11.7344L10.25 13.5703C10.25 13.6875 10.25 13.8438 10.25 14C10.25 16.0703 11.9297 17.75 14 17.75C16.0703 17.75 17.75 16.0703 17.75 14C17.75 11.9297 16.0703 10.25 14 10.25C12.9844 10.25 12.0469 10.6797 11.3828 11.3047L7.71094 9.46875C7.71094 9.3125 7.75 9.19531 7.75 9C7.75 8.84375 7.71094 8.6875 7.71094 8.57031L11.3828 6.73438C12.0469 7.35938 12.9844 7.75 14 7.75Z" fill="white"/>
</svg>
