<svg width="19" height="16" viewBox="0 0 19 16" fill="none" xmlns="http://www.w3.org/2000/svg">
<path d="M1.2915 0C0.854004 0 0.541504 0.34375 0.541504 0.75C0.541504 1.1875 0.854004 1.5 1.2915 1.5H2.9165L4.7915 11.4062C4.854 11.75 5.1665 12 5.5415 12H15.7915C16.1978 12 16.5415 11.6875 16.5415 11.25C16.5415 10.8438 16.1978 10.5 15.7915 10.5H6.13525L5.854 9H15.7603C16.229 9 16.604 8.71875 16.729 8.28125L18.4165 2.28125C18.604 1.65625 18.1353 1 17.4478 1H4.354L4.26025 0.625C4.19775 0.28125 3.88525 0 3.5415 0H1.2915ZM6.0415 16C6.854 16 7.5415 15.3438 7.5415 14.5C7.5415 13.6875 6.854 13 6.0415 13C5.19775 13 4.5415 13.6875 4.5415 14.5C4.5415 15.3438 5.19775 16 6.0415 16ZM16.5415 14.5C16.5415 13.6875 15.854 13 15.0415 13C14.1978 13 13.5415 13.6875 13.5415 14.5C13.5415 15.3438 14.1978 16 15.0415 16C15.854 16 16.5415 15.3438 16.5415 14.5Z" fill="white"/>
</svg>
