<svg width="31" height="24" viewBox="0 0 31 24" fill="none" xmlns="http://www.w3.org/2000/svg">
<path d="M8.4375 9.14062C8.01562 9.04688 7.54688 9 7.125 9C5.71875 9 4.45312 9.375 3.32812 9.9375C2.39062 8.90625 1.875 7.5 1.875 6C1.875 2.71875 4.54688 0 7.875 0C9.75 0 11.3906 0.890625 12.5156 2.25C13.3594 1.78125 14.3438 1.5 15.375 1.5C17.4375 1.5 19.2656 2.57812 20.3438 4.17188C19.7812 4.54688 19.3125 4.92188 18.8906 5.39062C17.8125 4.82812 16.6406 4.5 15.375 4.5C12.2344 4.5 9.5625 6.42188 8.4375 9.14062ZM21.375 12.0469C20.0156 10.2188 17.8125 9 15.375 9C13.875 9 12.5156 9.46875 11.3438 10.1719C10.875 9.9375 10.4062 9.70312 9.89062 9.51562C10.875 7.45312 12.9375 6 15.375 6C16.8281 6 18.1875 6.5625 19.2188 7.40625C20.25 5.67188 22.1719 4.5 24.375 4.5C27.6562 4.5 30.375 7.21875 30.375 10.5C30.375 12.5156 29.3906 14.25 27.9375 15.3281C26.7656 13.3594 24.5625 12 22.125 12C21.8438 12 21.6094 12.0469 21.375 12.0469ZM7.125 24C3.375 24 0.375 21 0.375 17.25C0.375 13.5469 3.375 10.5 7.125 10.5C8.71875 10.5 10.2188 11.1094 11.3438 12.0469C12.4219 11.1094 13.8281 10.5 15.375 10.5C17.6719 10.5 19.6406 11.8125 20.6719 13.7344C21.1406 13.5938 21.6094 13.5 22.125 13.5C24.9844 13.5 27.375 15.8906 27.375 18.75C27.375 21.6562 24.9844 24 22.125 24H7.125Z" fill="#79C54A"/>
</svg>
