<svg width="22" height="24" viewBox="0 0 22 24" fill="none" xmlns="http://www.w3.org/2000/svg">
<path d="M6.45312 0.84375L6.125 1.5H1.625C0.78125 1.5 0.125 2.20312 0.125 3C0.125 3.84375 0.78125 4.5 1.625 4.5H19.625C20.4219 4.5 21.125 3.84375 21.125 3C21.125 2.20312 20.4219 1.5 19.625 1.5H15.125L14.75 0.84375C14.5156 0.328125 14 0 13.4375 0H7.76562C7.20312 0 6.6875 0.328125 6.45312 0.84375ZM19.625 6H1.625L2.60938 21.8906C2.65625 23.1094 3.64062 24 4.85938 24H16.3438C17.5625 24 18.5469 23.1094 18.5938 21.8906L19.625 6Z" fill="#79C54A"/>
</svg>
