<svg width="41" height="41" viewBox="0 0 41 41" fill="none" xmlns="http://www.w3.org/2000/svg">
<path d="M19.9844 11.3281C18.5781 11.3281 17.0938 11.6406 15.7656 12.2656C13.7344 13.2812 12.1719 14.8438 11.3125 16.7188L1.15625 37.5C0.921875 37.9688 0.921875 38.5938 1.15625 39.0625C1.46875 39.6875 2.09375 40.0781 2.71875 40.0781C2.95312 40.0781 3.26562 40 3.5 39.8438L24.2812 29.6875C26.1562 28.8281 27.7188 27.2656 28.7344 25.2344C30.6094 21.4062 29.6719 17.0312 26.8594 14.2188C24.9844 12.3438 22.4844 11.3281 19.9844 11.3281ZM27.5625 24.6875C26.7031 26.4062 25.2969 27.8125 23.6562 28.5938L14.75 32.9688L11.3906 29.6094C11.1562 29.375 10.7656 29.375 10.5312 29.6094C10.2969 29.8438 10.2969 30.2344 10.5312 30.4688L13.5781 33.5156L2.95312 38.75C2.875 38.75 2.79688 38.8281 2.71875 38.8281C2.5625 38.8281 2.32812 38.75 2.25 38.5156C2.17188 38.3594 2.17188 38.2031 2.25 38.0469L12.4062 17.3438L15.5312 20.4688C15.6094 20.625 15.7656 20.7031 16 20.7031C16.1562 20.7031 16.3125 20.625 16.3906 20.4688C16.625 20.2344 16.625 19.8438 16.3906 19.6094L13.0312 16.25C13.8906 15.0781 14.9844 14.0625 16.3125 13.4375C17.4844 12.8125 18.6562 12.5781 19.9844 12.5781C22.1719 12.5781 24.3594 13.4375 26 15.0781C28.5 17.5781 29.2031 21.4844 27.5625 24.6875ZM40.8438 12.1875C38.5 9.29688 35.0625 8.20312 31.8594 9.14062C32.7969 5.9375 31.7031 2.5 28.8125 0.15625C28.5781 0 28.2656 0 28.0312 0.15625C26 1.875 24.8281 4.14062 24.75 6.48438C24.5938 8.90625 25.5312 11.1719 27.4062 12.9688L28.0312 13.5938C29.75 15.3906 31.8594 16.3281 34.125 16.3281C34.2812 16.3281 34.3594 16.25 34.5156 16.25C36.8594 16.1719 39.125 15 40.8438 12.9688C41 12.7344 41 12.4219 40.8438 12.1875ZM34.4375 15C32.4062 15.1562 30.4531 14.2969 28.8906 12.7344L28.2656 12.1094C26.7031 10.5469 25.8438 8.59375 26 6.5625C26.0781 4.6875 26.9375 2.89062 28.4219 1.48438C30.9219 3.82812 31.625 7.03125 30.2188 9.92188C30.1406 10.1562 30.2188 10.4688 30.375 10.625C30.5312 10.7812 30.8438 10.8594 31.0781 10.7812C33.9688 9.375 37.1719 10.0781 39.5156 12.5781C38.1094 14.0625 36.3125 14.9219 34.4375 15Z" fill="#182550"/>
</svg>
