<svg width="40" height="36" viewBox="0 0 40 36" fill="none" xmlns="http://www.w3.org/2000/svg">
<path d="M13.75 22.375C11.3281 22.375 9.375 24.4062 9.375 26.75C9.375 29.1719 11.3281 31.125 13.75 31.125C16.0938 31.125 18.125 29.1719 18.125 26.75C18.125 24.4062 16.0938 22.375 13.75 22.375ZM13.75 29.875C11.9531 29.875 10.625 28.5469 10.625 26.75C10.625 25.0312 11.9531 23.625 13.75 23.625C15.4688 23.625 16.875 25.0312 16.875 26.75C16.875 28.5469 15.4688 29.875 13.75 29.875ZM24.6875 0.578125C24.4531 0.578125 24.2188 0.5 23.9844 0.5C22.8906 0.5 21.7969 0.890625 20.9375 1.59375L17.6562 4.17188C17.1875 4.48438 17.1094 5.10938 17.2656 5.57812C17.5 6.20312 17.5 6.82812 17.4219 7.53125C17.1094 9.01562 15.8594 10.2656 14.375 10.5C14.1406 10.5 13.9062 10.5 13.75 10.5C12.9688 10.5 12.2656 10.3438 11.6406 9.95312C11.4062 9.79688 11.1719 9.71875 10.9375 9.71875C10.625 9.71875 10.3906 9.79688 10.1562 9.95312L0.9375 17.2969C0.3125 17.7656 0 18.4688 0 19.25V31.75C0 33.8594 1.64062 35.5 3.75 35.5H36.25C38.2812 35.5 40 33.8594 40 31.75V18C40 4.48438 29.4531 1.28125 24.6875 0.578125ZM38.75 31.75C38.75 33.1562 37.5781 34.25 36.25 34.25H3.75C2.34375 34.25 1.25 33.1562 1.25 31.75V19.25H24.375C24.375 21.6719 26.3281 23.625 28.75 23.625C31.0938 23.625 33.125 21.6719 33.125 19.25H38.75V31.75ZM25.625 19.25C25.625 17.5312 26.9531 16.125 28.75 16.125C30.4688 16.125 31.875 17.5312 31.875 19.25C31.875 21.0469 30.4688 22.375 28.75 22.375C26.9531 22.375 25.625 21.0469 25.625 19.25ZM32.8906 18C32.3438 16.2031 30.7031 14.875 28.75 14.875C26.7188 14.875 25.0781 16.2031 24.5312 18H1.95312L11.0156 10.9688C11.7969 11.5156 12.7344 11.75 13.75 11.75C13.9844 11.75 14.2969 11.75 14.6094 11.75C16.5625 11.3594 18.2031 9.79688 18.5938 7.76562C18.75 6.90625 18.75 6.04688 18.4375 5.1875L21.7188 2.60938C22.3438 2.0625 23.125 1.82812 23.9844 1.82812C24.1406 1.82812 24.375 1.82812 24.5312 1.82812C28.8281 2.45312 38.75 5.26562 38.75 18H32.8906Z" fill="#182550"/>
</svg>
